<?xml version="1.0" encoding="utf-8"?>
<!-- Generator: Adobe Illustrator 24.0.2, SVG Export Plug-In . SVG Version: 6.00 Build 0)  -->
<svg version="1.1" id="Layer_1" xmlns="http://www.w3.org/2000/svg" xmlns:xlink="http://www.w3.org/1999/xlink" x="0px" y="0px"
	 viewBox="0 0 628.8 130.1" style="enable-background:new 0 0 628.8 130.1;" xml:space="preserve">
<style type="text/css">
	.st0{fill:#FFFFFF;}
</style>
<g>
	<path class="st0" d="M87.5,92.5c-3.6,4.7-7.2,8.4-10.9,11c-3.5,2.4-7.6,3.6-12.5,3.6c-3.9,0-7.4-1-10.7-3.1
		c-3.4-2.1-6.4-5.1-8.9-8.8c-2.6-3.8-4.6-8.3-6-13.4C37,76.7,36.3,71,36.3,65v-0.3c0-5.9,0.7-11.5,2.2-16.7c1.4-5.1,3.5-9.6,6-13.4
		c2.5-3.7,5.5-6.6,8.9-8.7c3.3-2,6.9-3,10.7-3c4.9,0,8.9,1.2,12.4,3.7c3.6,2.6,7.1,6,10.3,10.2l2.1,2.7l9-13.2l-1.1-1.4
		c-2-2.6-4.1-5.1-6.3-7.3c-2.2-2.2-4.7-4.2-7.3-5.8c-2.6-1.6-5.5-2.9-8.6-3.7C71.5,7.2,68,6.8,64.2,6.8c-6.2,0-12,1.6-17.2,4.8
		c-5.1,3.1-9.6,7.4-13.3,12.7c-3.6,5.3-6.5,11.5-8.6,18.5c-2,7-3.1,14.5-3.1,22.3v0.3c0,7.9,1,15.5,3.1,22.4c2,7,4.9,13.2,8.6,18.4
		s8.1,9.5,13.2,12.5c5.1,3.1,10.9,4.7,17,4.7c3.8,0,7.3-0.5,10.5-1.5c3.1-1,6.1-2.4,8.8-4.1c2.7-1.7,5.2-3.9,7.6-6.3
		c2.3-2.4,4.5-5.1,6.6-8.1l1-1.5l-8.9-12L87.5,92.5z"/>
	<path class="st0" d="M138,7.8l-37.3,113.7H115l9.3-28.5h39l9.2,28.5h14.7L149.9,7.8L138,7.8L138,7.8z M158.2,77h-28.9l14.5-44.5
		L158.2,77z"/>
	<path class="st0" d="M243.6,76.4c2.2-0.8,4.3-1.8,6.2-3.1c2.9-1.9,5.4-4.2,7.4-7.1c2.1-2.8,3.7-6.2,4.8-10
		c1.1-3.8,1.7-8.1,1.7-12.8v-0.3c0-4.5-0.6-8.8-1.7-12.6c-1.1-3.9-2.8-7.3-4.9-10.2c-2.7-3.7-6.1-6.6-10.2-8.7s-8.8-3.1-14-3.1
		h-36.2v112.9h13.8V79.5h18.4l22.7,41.9h16.6L243.6,76.4z M210.5,24.8h21.8c5.7,0,9.9,1.6,13,4.8c3.1,3.3,4.6,8,4.6,14v0.3
		c0,3.2-0.5,6-1.4,8.5c-0.9,2.4-2.1,4.5-3.7,6.1c-1.5,1.6-3.4,2.9-5.5,3.8c-2.2,0.9-4.5,1.4-7.1,1.4h-21.6L210.5,24.8L210.5,24.8z"
		/>
</g>
<g>
	<path class="st0" d="M320.2,122.7c-7.6,0-14.9-1.6-21.8-4.7c-6.9-3.1-13-7.8-18.2-14.1l13.2-20.8c8.5,9,17.8,13.5,27.7,13.5
		c3.2,0,5.6-0.7,7.3-2c1.7-1.3,2.5-3.2,2.5-5.7v-0.3c0-1.2-0.2-2.2-0.6-3.1c-0.4-0.9-1.2-1.8-2.3-2.6c-1.1-0.9-2.6-1.7-4.4-2.5
		s-4.2-1.6-7.1-2.5c-4.6-1.4-8.8-2.9-12.7-4.6s-7.3-3.8-10.2-6.4c-2.9-2.6-5.2-5.9-6.8-9.8c-1.7-3.9-2.5-8.7-2.5-14.5v-0.3
		c0-5.2,0.8-10,2.3-14.4s3.7-8.2,6.6-11.4c2.9-3.2,6.4-5.7,10.4-7.5c4.1-1.8,8.7-2.6,13.8-2.6c7.3,0,13.8,1.3,19.6,3.8
		c5.7,2.5,10.9,6.3,15.6,11.2l-11.8,22.1c-3.9-3.6-7.9-6.4-12-8.3s-8.1-2.8-11.9-2.8c-2.8,0-5,0.7-6.4,2.1s-2.1,3.1-2.1,5.1v0.3
		c0,1.3,0.2,2.4,0.7,3.4c0.4,1,1.2,1.8,2.3,2.6c1.1,0.8,2.6,1.6,4.5,2.4s4.3,1.6,7.3,2.5c4.9,1.4,9.3,3,13.2,4.9
		c3.9,1.9,7.3,4.1,10.1,6.8c2.8,2.7,4.9,5.9,6.3,9.7c1.4,3.8,2.2,8.3,2.2,13.5V86c0,5.8-0.8,10.9-2.5,15.4s-4,8.3-7,11.5
		s-6.6,5.6-10.9,7.2C330.1,121.9,325.4,122.7,320.2,122.7z"/>
	<path class="st0" d="M366.2,8.3h36.6c5.4,0,10.2,0.9,14.6,2.6c4.4,1.8,8.1,4.3,11.2,7.7c3.1,3.4,5.5,7.5,7.1,12.4
		c1.7,4.9,2.5,10.5,2.5,16.7V48c0,6.6-0.9,12.5-2.7,17.5s-4.4,9.3-7.6,12.7c-3.3,3.4-7.1,6-11.6,7.7s-9.4,2.6-14.7,2.6h-11.7v32.1
		h-23.7V8.3z M401,64.2c4.2,0,7.5-1.3,9.9-4c2.4-2.6,3.6-6.2,3.6-10.7v-0.3c0-4.8-1.2-8.5-3.6-11.1c-2.4-2.5-5.8-3.8-10.1-3.8h-11.1
		v29.9H401z"/>
	<path class="st0" d="M491.2,123c-6.6,0-12.7-1.5-18.3-4.6s-10.5-7.2-14.5-12.4c-4.1-5.2-7.3-11.4-9.6-18.5s-3.5-14.6-3.5-22.6v-0.3
		c0-8,1.2-15.6,3.5-22.7s5.5-13.3,9.7-18.6c4.1-5.3,9-9.5,14.6-12.5s11.7-4.6,18.3-4.6s12.7,1.5,18.3,4.6
		c5.6,3.1,10.4,7.2,14.5,12.4c4.1,5.2,7.3,11.4,9.6,18.5s3.5,14.6,3.5,22.6v0.3c0,8-1.2,15.6-3.5,22.7c-2.3,7.1-5.5,13.3-9.7,18.6
		c-4.1,5.3-9,9.5-14.6,12.5C503.9,121.5,497.8,123,491.2,123z M491.4,94.9c3.3,0,6.2-0.8,8.9-2.4c2.7-1.6,5-3.8,6.8-6.5
		c1.9-2.7,3.3-5.9,4.4-9.6c1.1-3.6,1.6-7.5,1.6-11.6v-0.3c0-4.1-0.5-7.9-1.6-11.6c-1.1-3.6-2.6-6.9-4.5-9.6c-2-2.8-4.3-5-7-6.7
		s-5.7-2.5-8.9-2.5c-3.3,0-6.2,0.8-8.9,2.4s-4.9,3.8-6.9,6.5c-1.9,2.7-3.4,5.9-4.4,9.6c-1,3.6-1.5,7.5-1.5,11.6v0.3
		c0,4.1,0.5,7.9,1.6,11.6c1.1,3.6,2.5,6.9,4.5,9.6c1.9,2.8,4.2,5,6.9,6.7C485.1,94.1,488.1,94.9,491.4,94.9z"/>
	<path class="st0" d="M570.5,35.6h-25.6V8.3h74.9v27.3h-25.6v85.1h-23.7L570.5,35.6L570.5,35.6z"/>
</g>
</svg>
