<?xml version="1.0" encoding="UTF-8" standalone="no"?><!-- Generator: Gravit.io --><svg xmlns="http://www.w3.org/2000/svg" xmlns:xlink="http://www.w3.org/1999/xlink" style="isolation:isolate" viewBox="0 0 24 24" width="24pt" height="24pt"><defs><clipPath id="_clipPath_2fh2YTeuV4moLxVfqEdFXbyGRKskgCFr"><rect width="24" height="24"/></clipPath></defs><g clip-path="url(#_clipPath_2fh2YTeuV4moLxVfqEdFXbyGRKskgCFr)"><path d=" M 0 0 L 24 0 L 24 24 L 0 24 L 0 0 L 0 0 Z " fill="none"/><path d=" M 12 2 C 8.13 2 5 5.13 5 9 C 5 13.17 9.42 18.92 11.24 21.11 C 11.64 21.59 12.37 21.59 12.77 21.11 C 14.58 18.92 19 13.17 19 9 C 19 5.13 15.87 2 12 2 Z  M 12 11.5 C 10.62 11.5 9.5 10.38 9.5 9 C 9.5 7.62 10.62 6.5 12 6.5 C 13.38 6.5 14.5 7.62 14.5 9 C 14.5 10.38 13.38 11.5 12 11.5 Z " fill="rgb(255,255,255)"/></g></svg>