<?xml version="1.0" encoding="UTF-8" standalone="no"?><!-- Generator: Gravit.io --><svg xmlns="http://www.w3.org/2000/svg" xmlns:xlink="http://www.w3.org/1999/xlink" style="isolation:isolate" viewBox="0 0 24 24" width="24pt" height="24pt"><defs><clipPath id="_clipPath_PosOaC8VEOw2AmJYHwZz9nso7Z09EFVs"><rect width="24" height="24"/></clipPath></defs><g clip-path="url(#_clipPath_PosOaC8VEOw2AmJYHwZz9nso7Z09EFVs)"><path d=" M 12 0 C 5.372 0 0 5.372 0 12 C 0 18.628 5.372 24 12 24 C 18.628 24 24 18.628 24 12 C 24 5.372 18.628 0 12 0 Z  M 14.094 19.097 C 14.094 20.172 13.164 21.044 12.016 21.044 C 10.869 21.044 9.939 20.172 9.939 19.097 L 9.939 10.161 C 9.939 9.086 10.869 8.214 12.016 8.214 C 13.164 8.214 14.094 9.086 14.094 10.161 L 14.094 19.097 Z  M 12 7.41 C 10.766 7.41 9.766 6.41 9.766 5.176 C 9.766 3.942 10.766 2.942 12 2.942 C 13.234 2.942 14.234 3.942 14.234 5.176 C 14.234 6.41 13.234 7.41 12 7.41 Z " fill="rgb(255,255,255)"/></g></svg>